<svg width="57" height="56" viewBox="0 0 57 56" fill="none" xmlns="http://www.w3.org/2000/svg">
<path d="M47.75 19.25H46V10.5C46 10.0359 45.8156 9.59075 45.4874 9.26256C45.1592 8.93437 44.7141 8.75 44.25 8.75H30.25C29.7859 8.75 29.3407 8.93437 29.0126 9.26256C28.6844 9.59075 28.5 10.0359 28.5 10.5V19.25H9.25C8.78587 19.25 8.34075 19.4344 8.01256 19.7626C7.68437 20.0908 7.5 20.5359 7.5 21V47.25C7.5 47.7141 7.68437 48.1592 8.01256 48.4874C8.34075 48.8156 8.78587 49 9.25 49H47.75C48.2141 49 48.6592 48.8156 48.9874 48.4874C49.3156 48.1592 49.5 47.7141 49.5 47.25V21C49.5 20.5359 49.3156 20.0908 48.9874 19.7626C48.6592 19.4344 48.2141 19.25 47.75 19.25ZM32 12.25H42.5V14H37.25C36.7859 14 36.3407 14.1844 36.0126 14.5126C35.6844 14.8408 35.5 15.2859 35.5 15.75C35.5 16.2141 35.6844 16.6592 36.0126 16.9874C36.3407 17.3156 36.7859 17.5 37.25 17.5H42.5V19.25H32V12.25ZM46 45.5H11V22.75H46V45.5Z" fill="#31508C"/>
<path d="M32.875 24.5C30.9714 24.5 29.1105 25.0645 27.5276 26.1221C25.9448 27.1797 24.7112 28.6829 23.9827 30.4417C23.2542 32.2004 23.0636 34.1357 23.4349 36.0027C23.8063 37.8698 24.723 39.5848 26.0691 40.9309C27.4152 42.277 29.1302 43.1937 30.9973 43.5651C32.8643 43.9364 34.7996 43.7458 36.5583 43.0173C38.3171 42.2888 39.8203 41.0552 40.8779 39.4724C41.9355 37.8895 42.5 36.0286 42.5 34.125C42.4968 31.5733 41.4817 29.127 39.6773 27.3227C37.873 25.5183 35.4267 24.5032 32.875 24.5ZM32.875 40.25C31.6636 40.25 30.4794 39.8908 29.4721 39.2178C28.4649 38.5447 27.6798 37.5881 27.2162 36.4689C26.7527 35.3497 26.6314 34.1182 26.8677 32.9301C27.104 31.7419 27.6874 30.6506 28.544 29.794C29.4006 28.9374 30.4919 28.354 31.6801 28.1177C32.8682 27.8814 34.0997 28.0027 35.2189 28.4662C36.3381 28.9298 37.2947 29.7149 37.9678 30.7221C38.6408 31.7294 39 32.9136 39 34.125C39 35.7495 38.3547 37.3074 37.206 38.456C36.0574 39.6047 34.4995 40.25 32.875 40.25Z" fill="#31508C"/>
<path d="M32.875 29.75C32.0097 29.75 31.1638 30.0066 30.4444 30.4873C29.7249 30.9681 29.1642 31.6513 28.833 32.4508C28.5019 33.2502 28.4153 34.1299 28.5841 34.9785C28.7529 35.8272 29.1696 36.6067 29.7814 37.2186C30.3933 37.8304 31.1728 38.2471 32.0215 38.4159C32.8701 38.5847 33.7498 38.4981 34.5492 38.167C35.3487 37.8358 36.0319 37.2751 36.5127 36.5556C36.9934 35.8362 37.25 34.9903 37.25 34.125C37.25 32.9647 36.7891 31.8519 35.9686 31.0314C35.1481 30.2109 34.0353 29.75 32.875 29.75ZM32.875 35C32.7019 35 32.5328 34.9487 32.3889 34.8525C32.245 34.7564 32.1328 34.6197 32.0666 34.4598C32.0004 34.3 31.9831 34.124 32.0168 33.9543C32.0506 33.7846 32.1339 33.6287 32.2563 33.5063C32.3787 33.3839 32.5346 33.3006 32.7043 33.2668C32.874 33.2331 33.05 33.2504 33.2098 33.3166C33.3697 33.3828 33.5064 33.495 33.6025 33.6389C33.6987 33.7828 33.75 33.9519 33.75 34.125C33.75 34.3571 33.6578 34.5796 33.4937 34.7437C33.3296 34.9078 33.1071 35 32.875 35Z" fill="#31508C"/>
<path d="M16.25 14H11C10.5359 14 10.0908 14.1844 9.76256 14.5126C9.43437 14.8408 9.25 15.2859 9.25 15.75C9.25 16.2141 9.43437 16.6592 9.76256 16.9874C10.0908 17.3156 10.5359 17.5 11 17.5H16.25C16.7141 17.5 17.1592 17.3156 17.4874 16.9874C17.8156 16.6592 18 16.2141 18 15.75C18 15.2859 17.8156 14.8408 17.4874 14.5126C17.1592 14.1844 16.7141 14 16.25 14ZM14.5 24.5C14.0359 24.5 13.5908 24.6844 13.2626 25.0126C12.9344 25.3408 12.75 25.7859 12.75 26.25V28C12.75 28.4641 12.9344 28.9092 13.2626 29.2374C13.5908 29.5656 14.0359 29.75 14.5 29.75C14.9641 29.75 15.4092 29.5656 15.7374 29.2374C16.0656 28.9092 16.25 28.4641 16.25 28V26.25C16.25 25.7859 16.0656 25.3408 15.7374 25.0126C15.4092 24.6844 14.9641 24.5 14.5 24.5ZM14.5 31.5C14.0359 31.5 13.5908 31.6844 13.2626 32.0126C12.9344 32.3407 12.75 32.7859 12.75 33.25V40.25C12.75 40.7141 12.9344 41.1593 13.2626 41.4874C13.5908 41.8156 14.0359 42 14.5 42C14.9641 42 15.4092 41.8156 15.7374 41.4874C16.0656 41.1593 16.25 40.7141 16.25 40.25V33.25C16.25 32.7859 16.0656 32.3407 15.7374 32.0126C15.4092 31.6844 14.9641 31.5 14.5 31.5Z" fill="#FFF323"/>
</svg>
