<svg width="57" height="56" viewBox="0 0 57 56" fill="none" xmlns="http://www.w3.org/2000/svg">
<path d="M28.5 36.75C26.6435 36.75 24.863 36.0125 23.5503 34.6997C22.2375 33.387 21.5 31.6065 21.5 29.75V19.25C21.5 17.3935 22.2375 15.613 23.5503 14.3003C24.863 12.9875 26.6435 12.25 28.5 12.25C30.3565 12.25 32.137 12.9875 33.4497 14.3003C34.7625 15.613 35.5 17.3935 35.5 19.25V29.75C35.5 31.6065 34.7625 33.387 33.4497 34.6997C32.137 36.0125 30.3565 36.75 28.5 36.75ZM28.5 15.75C27.5717 15.75 26.6815 16.1187 26.0251 16.7751C25.3687 17.4315 25 18.3217 25 19.25V29.75C25 30.6783 25.3687 31.5685 26.0251 32.2249C26.6815 32.8813 27.5717 33.25 28.5 33.25C29.4283 33.25 30.3185 32.8813 30.9749 32.2249C31.6313 31.5685 32 30.6783 32 29.75V19.25C32 18.3217 31.6313 17.4315 30.9749 16.7751C30.3185 16.1187 29.4283 15.75 28.5 15.75Z" fill="#FFF323"/>
<path d="M40.75 29.75V19.25C40.75 18.7859 40.5656 18.3408 40.2374 18.0126C39.9093 17.6844 39.4641 17.5 39 17.5C38.5359 17.5 38.0907 17.6844 37.7626 18.0126C37.4344 18.3408 37.25 18.7859 37.25 19.25V29.75C37.25 32.0706 36.3281 34.2962 34.6872 35.9372C33.0462 37.5781 30.8206 38.5 28.5 38.5C26.1794 38.5 23.9538 37.5781 22.3128 35.9372C20.6719 34.2962 19.75 32.0706 19.75 29.75V19.25C19.75 18.7859 19.5656 18.3408 19.2374 18.0126C18.9092 17.6844 18.4641 17.5 18 17.5C17.5359 17.5 17.0908 17.6844 16.7626 18.0126C16.4344 18.3408 16.25 18.7859 16.25 19.25V29.75C16.2553 32.6927 17.3189 35.5354 19.2467 37.7587C21.1745 39.9821 23.8377 41.4378 26.75 41.86V45.5H21.5C21.0359 45.5 20.5908 45.6844 20.2626 46.0126C19.9344 46.3407 19.75 46.7859 19.75 47.25C19.75 47.7141 19.9344 48.1593 20.2626 48.4874C20.5908 48.8156 21.0359 49 21.5 49H35.5C35.9641 49 36.4093 48.8156 36.7374 48.4874C37.0656 48.1593 37.25 47.7141 37.25 47.25C37.25 46.7859 37.0656 46.3407 36.7374 46.0126C36.4093 45.6844 35.9641 45.5 35.5 45.5H30.25V41.86C33.1623 41.4378 35.8255 39.9821 37.7533 37.7587C39.6811 35.5354 40.7447 32.6927 40.75 29.75Z" fill="#31508C"/>
</svg>
