<svg width="57" height="56" viewBox="0 0 57 56" fill="none" xmlns="http://www.w3.org/2000/svg">
<path d="M33.7493 12.25H30.2493C29.7852 12.25 29.3401 12.4344 29.0119 12.7626C28.6837 13.0908 28.4993 13.5359 28.4993 14C28.4993 14.4641 28.6837 14.9092 29.0119 15.2374C29.3401 15.5656 29.7852 15.75 30.2493 15.75H33.7493C34.2135 15.75 34.6586 15.5656 34.9868 15.2374C35.315 14.9092 35.4993 14.4641 35.4993 14C35.4993 13.5359 35.315 13.0908 34.9868 12.7626C34.6586 12.4344 34.2135 12.25 33.7493 12.25ZM30.1093 41.335C30.0709 41.2235 30.018 41.1176 29.9518 41.02L29.7418 40.7575C29.5744 40.5994 29.3784 40.4747 29.1643 40.39C28.7383 40.215 28.2604 40.215 27.8343 40.39C27.6223 40.4787 27.427 40.603 27.2568 40.7575C26.9371 41.0929 26.7558 41.5367 26.7493 42C26.7521 42.1174 26.7638 42.2344 26.7843 42.35C26.8034 42.4597 26.8388 42.5658 26.8893 42.665C26.9241 42.7726 26.9774 42.8733 27.0468 42.9625C27.1168 43.0675 27.1868 43.155 27.2568 43.2425C27.4272 43.3968 27.6225 43.521 27.8343 43.61C28.0439 43.7024 28.2704 43.7501 28.4993 43.7501C28.7283 43.7501 28.9548 43.7024 29.1643 43.61C29.3762 43.521 29.5715 43.3967 29.7418 43.2425C29.8118 43.155 29.8818 43.0675 29.9518 42.9625C30.0213 42.8733 30.0746 42.7726 30.1093 42.665C30.1595 42.5657 30.1949 42.4596 30.2143 42.35C30.2345 42.2343 30.2462 42.1174 30.2493 42C30.2453 41.8827 30.2336 41.7658 30.2143 41.65C30.1949 41.5404 30.1595 41.4343 30.1093 41.335ZM26.2418 12.7575C25.9958 12.5147 25.6833 12.3502 25.3438 12.2848C25.0043 12.2194 24.653 12.256 24.3343 12.39C24.1201 12.4744 23.9241 12.5992 23.7568 12.7575C23.4273 13.087 23.2422 13.534 23.2422 14C23.2422 14.466 23.4273 14.913 23.7568 15.2425C24.0864 15.572 24.5333 15.7572 24.9993 15.7572C25.4654 15.7572 25.9123 15.572 26.2418 15.2425C26.3118 15.155 26.3818 15.0675 26.4518 14.9625C26.5213 14.8733 26.5746 14.7726 26.6093 14.665C26.6595 14.5657 26.6949 14.4596 26.7143 14.35C26.7345 14.2343 26.7462 14.1174 26.7493 14C26.7426 13.5367 26.5613 13.0931 26.2418 12.7575Z" fill="#FFF323"/>
<path d="M39 7H18C17.5359 7 17.0908 7.18437 16.7626 7.51256C16.4344 7.84075 16.25 8.28587 16.25 8.75V47.25C16.25 47.7141 16.4344 48.1592 16.7626 48.4874C17.0908 48.8156 17.5359 49 18 49H39C39.4641 49 39.9093 48.8156 40.2374 48.4874C40.5656 48.1592 40.75 47.7141 40.75 47.25V8.75C40.75 8.28587 40.5656 7.84075 40.2374 7.51256C39.9093 7.18437 39.4641 7 39 7ZM19.75 10.5H37.25V35H19.75V10.5ZM19.75 45.5V38.5H37.25V45.5H19.75Z" fill="#31508C"/>
</svg>
